<?xml version="1.0" encoding="utf-8"?>
<!-- Generator: Adobe Illustrator 21.0.0, SVG Export Plug-In . SVG Version: 6.00 Build 0)  -->
<svg version="1.1" id="Layer_1" xmlns="http://www.w3.org/2000/svg" xmlns:xlink="http://www.w3.org/1999/xlink" x="0px" y="0px"
	 viewBox="0 0 1080 1080" style="enable-background:new 0 0 1080 1080;" xml:space="preserve">
<style type="text/css">
	.st0{fill:#FFFFFF;}
	.st1{fill:#CBCBCB;}
</style>
<rect class="st0" width="1080" height="1080"/>
<path class="st1" d="M446.5,626.5c-4.1-4.4-8.1-8.6-12.1-12.8c-24.1-25.3-36.6-56.4-45.6-89.4c-5.7-20.7-8.5-41.8-8.1-63.3
	c0.4-24.2,0.7-48.4-0.1-72.6c-0.9-26.1,8.4-48.1,25-67.4c30.6-35.6,69.5-56.6,115.8-63.1c30.8-4.3,60.2,2.1,88.3,14.9
	c34.2,15.5,61.8,38.5,80.2,71.6c6.2,11.2,9.8,23.3,9.8,36.3c0,30.6,0.7,61.3-0.2,91.9c-1.3,43-11.9,83.8-35.5,120.2
	c-7.9,12.2-18.7,22.6-28.4,34.1c0.4,0.2,1.8,1.1,3.2,1.8c48.8,23.3,97.6,46.5,146.2,69.9c8.6,4.1,17,8.9,24.9,14.3
	c9.2,6.4,13.9,15.5,13.6,27.1c-0.4,15.5-0.1,31-0.1,46.5c-0.1,21.3-13.7,35.6-34.9,36.8c-1.5,0.1-3,0-4.5,0
	c-162.5,0-325.1,0-487.6,0c-9.4,0-18.4-1.1-26.1-7.4c-8.8-7.1-13.5-16.1-13.5-27.4c0-17.4,0.1-34.8-0.1-52.2
	c-0.1-8.8,4.6-15.4,10.8-20.3c7.6-6,15.9-11.7,24.6-15.9c50.9-24.5,102-48.5,153.1-72.7C445.7,627.3,446.2,626.7,446.5,626.5z
	 M788,788.1c0-13.3,0.2-25.5-0.1-37.8c-0.2-8.3-4.4-14-12.1-17.6C723.4,708,671,683.3,618.6,658.5c-9.3-4.4-15.9-11.6-18.6-21.7
	c-4.4-16.1,1.6-28.5,13.1-39.6c8.3-7.9,16.8-16.2,22.7-25.8c19.4-31.4,27.9-66.3,28.6-103c0.6-28.2,0.1-56.4,0.1-84.5
	c0-9.9-2.6-19-7.8-27.4c-15.3-24.7-37.3-41.2-63.6-52.7c-21.9-9.6-44.8-14.3-68.5-10.8c-35.2,5.2-64.9,21.9-89.4,47.6
	c-12.7,13.3-20.3,28.6-19.6,47.8c0.8,24.4,0,48.8,0.3,73.2c0.1,10.7,0.3,21.7,2.3,32.2c7.5,41,20.4,79.5,54.1,107.5
	c3.6,3,6.5,7.5,8.2,12c7.1,18.1-0.6,36.4-18.9,45.4c-13.7,6.7-27.7,13.1-41.5,19.6c-37.9,17.9-75.8,36-113.7,53.8
	c-9.9,4.7-15.2,11.9-14.7,23.2c0.4,9.4,0.1,18.9,0.1,28.4c0,1.6,0.3,3.2,0.4,4.5C457.7,788.1,622.6,788.1,788,788.1z"/>
</svg>
