<?xml version="1.0" encoding="utf-8"?>
<!-- Generator: Adobe Illustrator 21.0.0, SVG Export Plug-In . SVG Version: 6.00 Build 0)  -->
<svg version="1.1" id="Capa_1" xmlns="http://www.w3.org/2000/svg" xmlns:xlink="http://www.w3.org/1999/xlink" x="0px" y="0px"
	 viewBox="0 0 600 600" style="enable-background:new 0 0 600 600;" xml:space="preserve">
<style type="text/css">
	.st0{fill:#36D7B7;}
	.st1{clip-path:url(#SVGID_2_);fill-rule:evenodd;clip-rule:evenodd;fill:#3BCCB0;}
	.st2{fill-rule:evenodd;clip-rule:evenodd;fill:#36D7B7;}
	.st3{clip-path:url(#SVGID_4_);fill:#FFFFFF;}
	.st4{fill:#FFFFFF;}
</style>
<circle class="st0" cx="300" cy="300" r="300"/>
<g>
	<defs>
		<circle id="SVGID_1_" cx="300" cy="300" r="300"/>
	</defs>
	<clipPath id="SVGID_2_">
		<use xlink:href="#SVGID_1_"  style="overflow:visible;"/>
	</clipPath>
	<path class="st1" d="M598.3,286.1c-5.8-3.4-11.6-6.9-17.5-10.6c-5.4-3.4-10.7-6.7-15.9-10.1l-6.4-6c-4.1,0-9-7.3-13-7.9
		c-3.4-0.4-9.4-1.3-12.9-1.7c-6.6-0.7-9.4-11.7-15.6-13c-4.3-0.9-9.8-2.8-13.8-4.6c-2.1-1-4.9-1.1-6.9-2.3
		c-6.1-3.8-13.9-4.1-19.4,0.6c-2.9,2.5-6.2,5.5-9.8,7.5c-2.3,1.2-4.9,2.9-6.9,4.1c-0.8,0.5-2,0.5-2.9,1.1c-0.7,0.5-1,1.2-1.7,1.8
		c-1,0.7-2.4,1-3.5,1.7c-0.2,0.1,0.1,0.5,0,0.6c-1.5,1-4,2-5.1,3.5c-1,1.2-0.2,2.1-0.6,3.5c-0.1,0.2-0.5-0.2-0.6,0
		c-0.5,0.7-0.5,0.6-1.1,1.2c-0.1,0.1,0.1,0.4,0,0.5c-2.7,2-8,2.5-12,1.7c-1.1-0.3-2-0.6-2.8-1.2c-0.2-0.1,0.1-0.4,0-0.5
		c-2.4-1.6-5.5-2.5-8.1-4.1c-4.4-2.8-8.5-5.4-13.2-7.5c-5.1-2.4-10.8-3.9-16-5.8c-1.1-0.4-2.3-0.2-3.5-0.5c-1.1-0.4-1.8-1.4-2.9-1.8
		c-1.1-0.3-2.4-0.2-3.4-0.6c-1-0.3-1.9-0.9-2.9-1.1c-1.1-0.3-2.3-0.2-3.5-0.5c-3.6-1.3-6.8-3.1-10.3-4.6
		c-10.4-4.8-20.6-11.1-30.3-17.4c-0.7-0.4-1.7-0.2-2.3-0.5c-0.7-0.5-1-1.3-1.7-1.7c-0.4-0.2-0.8,0.2-1.1,0c-0.9-0.5-1.5-1-2.3-1.7
		c-2.6-2.3-3.9-5-5.8-7.5c-0.2-0.4-0.9-0.2-1.1-0.6c-0.8-1.2-0.7-2.9-2.3-2.9c-3.2,0-5.3,0.8-8,1.7c-2.7,1-6,1.2-8.6,2.3
		c-2.9,1.2-6.1,1.7-9.1,2.9c-3.5,1.5-4.9,3.6-9.1,4.1c-3.2,0.4-6.6,0-9.8,0h-2.3c-0.2,0,0.2,0.5,0,0.5c-0.9,0.5-1.9,0.3-2.9,0.6
		c-0.2,0.1,0.2,0.5,0,0.6c-0.6,0.3-1.1,0.4-1.7,0.6c-1.9,0.7-2.9,0.3-5.1,0.6c-0.9,0.1-1.7,0.5-2.9,0.5c-7.1,0-12.8-1.4-18.9-2.3
		c-4.8-0.6-7.1-2.9-10.9-5.3c-0.8-0.5-2.5-0.8-3.5-1.1c-3.2-1.2-6.5-3-9.7-4.1c-5.2-1.6-8.5-2.9-13.2-5.2c-1.2-0.6-2.9-0.5-4.1-1.2
		c-2.7-1.5-5.3-3.5-8-5.2c-0.5-0.3-1.2-0.3-1.7-0.6c-0.4-0.3-0.7-0.9-1.1-1.1c-2-1.1-4.5-1.7-6.3-2.9c-1.8-1.2-3.2-3.1-5.1-4.1
		c-0.3-0.2-2-0.2-2.3,0c-0.2,0.1,0.2,0.4,0,0.5c-1.1,0.8-2.7,1.1-4,1.8c-0.7,0.3-1.1,1.3-1.7,1.7c-1.2,0.7-2.9,0.9-4.1,1.7
		c-1.2,0.9-2.1,1.7-3.4,2.3c-0.5,0.2-1.4,0.3-1.7,0.6c-0.7,0.8-0.2,1.2-1.7,1.2c-3.9,0-8,0.1-11.4-0.6c-3.3-0.7-4.5,0.5-6.3,1.7
		c-1,0.6-0.7,0.2-1.7,0.5c0,0-1.8,2.4-2.3,2.9c-0.8,0.8-2,2.8-2.9,3.5c-1.1,0.8-3.5,2.6-4.5,2.9c-1,0.3-1.2,0.1-1.7,0.6
		c-6.9,6.9-16,13.4-24,20.3c-2.8,2.3-6.3,5.3-9.8,6.9c-3.3,1.5-6.6,2.9-9.7,4.7c-14.8,8.4-39.5,24.7-76.4,43c-2.2,1.1-4,1.9-4.7,2.3
		C1.2,288.2,0,301.4,0,316.1c0,13.5,1,25.7,2.4,36.4C7,379.8,23.3,454.3,88,517c89.6,86.8,202.8,83.7,223.2,82.8
		c21.1-1.1,152.4-10.4,233.3-119.1c38.2-51.4,49.8-104.4,53.9-135.2c1-9.7,1.7-20.5,1.6-32.3C599.9,303.4,599.3,294.3,598.3,286.1z"
		/>
</g>
<path class="st2" d="M480.1,282.9c0,0-0.1,0-0.1,0c-2.3-1.3-4.9-1.9-7.2-3.3c-1.1-0.7-2.3-1.8-3.5-2.3c-0.5-0.2-1.2,0.2-1.7,0
	c-0.1-0.1-1.6-1.6-2.3-2.9c-0.8-0.3-2,0-2.9,0c-1.1,0-2-0.5-2.3-0.6c-2.4-0.8-8.5,2-6.3-2.9c0.5-1.1,1.1-2.3,1.7-2.9
	c0.4-0.4,1.1-0.2,1.1-1.1c0-0.8-1-0.9-1.7-0.6c-2.5,0.8-5.4,0.6-8,0.6c-1,0-6.7,2.2-6.9,2.3c-1.7,0.6-3.6-0.4-5.2,0.6
	c-2,1.2-2.2,0.6-4.5,1.1c-0.1,0.1-2.3,1.2-2.9,0.6c-0.2-0.2,0-2,0-2.3c0-1.6,0.3-3.8-0.5-4.6c-0.5-0.5-0.2-3.2-1.2-4.8
	c-1-1.5-3.3-2-3.3-2.1c-0.2-1.1,0.3-1.8,0.5-2.9c7.2,3,11.5,7.6,20,9.8c0.4,0.1,0.8,0.4,1.2,0.6c2.6,0.8,4-1.2,6.3-1.2
	c2.7,0,4.8-0.6,8-0.6c3.7,0,4,2.6,5.7,5.2c1,1.4,1.9,1.7,2.9,2.9l9.8,8.6c0.4,0.3,3,1.9,3.5,2.4c0.1,0.1,0,0.3,0,0.4
	C480.2,282.9,480.1,282.9,480.1,282.9z M574.9,282.4c-7-0.7-10.8-8.1-17.9-8.1c-3.6,0-7-1.7-10.4-2.3c-1.8-0.4-2.4-0.1-3.9-0.6
	c-0.6,0-9.5-7.7-11.6-14.7c0.3,0.2,11.1,6.3,15,5.9c2,1.2,2.9,1,4.6,1.3c0-1.1-11-7.4-17.2-10.4c-1.6-0.8-2.9-1.2-3.6-1.2
	c-3-2.4-4.6,2.8-3.2,6.4c0,1-0.3,2.5,0,3.5c0.1,0.4,0.6,0.2,0.6,0.5c0,1.2-7.9,0.9-9.2,0.6c-1.1-0.2-4.9-2-5.1-2.9
	c-0.1-0.2,0.5-3.2-2.5-5.6c0-1.8,2.8-4.8,2.3-6.2c-0.7-2-3.3-3.5-4.6-5.4c-1.8,0-5.9,3.3-6.1,3.4c-1.3,0.2-4.6-0.2-4.6,1.2
	c0,0.2,0.5,4.7-1.2,4.7c-0.1,0,0.2-0.5,0-0.6c-0.1-0.2-1-0.4-1.1-0.6c-0.5-0.8-0.1-0.9-1.2-1.1c-5.3,2.6-12,6.6-13.5,5.7
	c-1.6-1.7,2.2-5.3,8.3-9.8c0.5-0.4,2.6-2.1,2.9-2.9c0.3-0.9,0.1-1.2,0.5-1.7c0.5-0.5,0.3-3.7-1.5-6c-1.9-2.5-5.4-4.1-5.4-6.8
	c0.4,0,2.6-0.7,5.5,0.6c2.2,1,5.3,3.1,5.7,5.7c3.2,1.6,8.1,1.2,10.5,1.2c7.3,0,7.1,2.9,13.8,4.5c1.8,1.7,1.9,4.6,5.2,7.2
	c1.9,1.5,5.8,1.9,8.1,3c3.9,1.9,12.2,1.3,13.7,2.2c2,1.1,4.6,6.1,9.9,9.4c3.2,2.6,2.2,6.1,4.7,8
	C567.2,273.8,572.9,278.3,574.9,282.4z M421.2,259.3c-3.9,0-8.4-1.8-12-2.9c-1.8-0.4-2.4-0.3-4-1.1c-2.7-1.4-6.1-3.4-9.2-4.1
	c-0.9-0.2-1.9,0.2-2.9,0c-7-1.4-13.4-6.3-20.6-6.3c-0.1,0-0.1,4-1.6,4.9c-0.3,0.2-2.4-1.8-2.7-1.6c-1.5,0.9-2.6,0.8-3.1,1.3
	c-0.2,0.2-2,0-2.3,0c0.2-0.3,1.6-1.1,1.7-1.7c0.2-1.2-0.4-2.2,0.6-2.9c0.6-0.4,2.9-1.1,3.9-2.9c-2.2-0.5-7.6-1.2-7.9-1.3
	c-2.6-0.5-4.4-1.7-6.9-2.3c-1.7-0.4-4.5,0.1-6.3-0.5c-0.5-0.2-2.4-2.2-2.9-2.4c-0.8-0.3-1.4-0.3-2.3-0.5c-3.6-1-7-2.1-10.7-2.9
	l-0.2,0c-3.9-0.8-8.1-1.1-12.8-0.6c-2.7,0.3-6.5,1-9.2,1.7c-0.6,0.2-2.6,1.4-3.4,1.1c-0.4-0.1-3.8,0.6-3.9,0.5
	c2.1-1.2,4.8-1.9,5-2.2c0.4-0.4,6-1.8,6.4-2c1.7-2.8,4.7-3.4,5.5-3.7c0.3-0.1,2.2-3,2.4-3c2-0.6,2.8-1,4.1-2.3
	c-1.8,0-3.1-0.6-5.1-0.6c0.4-0.4,1.6-1.7,2.2-2.5c0.3-0.4-0.3,0-1-2.1c-0.2-0.6-1.4-1.8-1.4-2.6c-0.1-0.5,1.8-2.3,1.7-2.7
	c-0.3-1.6-1.4-3.1-1.5-3.4c-0.4-1-1.7-7.8-1.7-8.7l1.9,2l1.3-0.2c0.9,0.1,1.3,2.4,1.7,5c1.7,3.2,3.4,4.7,5,5.9c1-0.3,2-0.3,3-0.2
	c1.7,1.1,2.3,2.2,2.5,3.2l2.8,0.3c3.2,0.4,2.3,6.6,5.6,9.3c3.1,1.1,6.4-2.5,9.7-0.6l8.1,5.2c2.5,0.9,5.9,1.3,7.4,2.6
	c1.5,2.7,2.9,3.6,4.4,4.1l5.3,0.4c0.1,0.2-0.2,0.5,0,0.6c1.8,0.6,3.4,1.8,5.2,2.3c1.4,0.5,1.9,0.1,3.4,0.6c0.2,0.1-0.2,0.5,0,0.6
	c0.3,0.1,3.2,1.7,4.2,2.6c1.8,1.7,2.1,3.5,3.3,5.4c0.1,0.2,0.4-0.1,0.6,0c0.7,0.7,1.2,1.2,2.1,1.5c2.3,0.8,4.9-1,7.1-1.5
	c1.7-0.3,3.6,0.4,5.2,0c0.5-0.1,3-0.2,3.5,0c0.8,0.1,5.1,4.4,5.1,5.2C418.8,255.7,419.7,257.7,421.2,259.3z M268.3,257.6
	c-1.9-0.1-3.8-0.3-5.7-0.6c-2.2-0.3-4.3-0.9-6.8-1.1c-6.4-0.5-13.1,0-19.6,0h-11.4c-1.1,0.1-1.8,1.2-3.4,0.5c-0.2,0,0.2-0.5,0-0.5
	c-0.9-0.3-2,0.3-2.9,0c-0.2-0.1,0.1-0.4,0-0.5c-1.7-1.7-2.7-3.6-5.2-5.2c-0.3-0.2-0.8,0.1-1.1,0c-1.2-0.5-1.8-0.3-2.9-0.6
	c-0.2-0.1,0.2-0.5,0-0.6c-0.5-0.1-3,0.1-1.1-0.6c2.1-0.7,6.4,0,8.6,0h10.9c2.1,0,4.9,0.5,6.9,0c2-0.5-1.8-3.2-2.3-4
	c-2.3-3.6-2.1-8.4-4.6-11.6c-2.9-4-9.4-2.4-14.3-1.2l-1.7,1.2c-0.7,0.2-1.5-0.3-2.3,0c-3.9,1.2-7.7,2.2-12,1.1
	c-2.5-0.6-4.5-2.1-6.9-2.9c-3.5-1.2-8-1.7-11.4-3.5c-3-1.5-7.5-3.3-9.7,0c-0.7,1-4.9,2.9-6.4,3.5c-0.7,0.3-4.7,0.4-6.7,0.6
	c-0.4-0.2-4,0.9-4.2,0.7c-0.8-0.6,3.1-2.2,4.4-3.2c3.1-3,9.9-6.5,11.1-7.3c0.4-0.2,0.8,0.2,1.2,0c0.4-0.3,0.2-0.9,0.6-1.1
	c0.2-0.3,0.8,0.2,1.1,0c1.7-1.1,3.5-1.2,5.2-2.4c0.7-0.4,1.1-1.4,1.7-1.7h1.1c1.8-0.6,3.6-0.9,5.7-1.1c1.3-0.1,8.6,0.3,8.6-1.8
	c0-1.2-0.7-0.6-1.1-1.1c-0.3-0.3-0.7-1.2-1.1-1.7c-0.2-0.2-1-0.4-1.1-0.6c-0.4-0.6-0.2-1.8-0.6-2.3c-0.8-1.3-2.7-2.8-4.1-3.5
	c-1.3-0.7-3.8-1.5-2.3-1.7c3-0.5,6.2,0.6,9.2,0c2.1-0.5,3.4-2.5,1.2-5c-2.2-2.5-6.5-5.2-6.8-5.6c-0.1-0.2-1.7-0.3-1.9-0.4
	c-2.1-2.2-4.4-4.3-6.3-6.3c-0.5-0.6-0.5-1.8-1.1-2.3h-0.5c-0.2-0.6,0-1.8,0.3-2.6c0.1-0.3,0.2-0.9,0.3-0.9c3.8,2.6,6,5.3,11,6.8
	c2.9,0.8,5.4,3.6,7.9,5c3.3,1.9,6.6,2.6,10.2,4.5c0.6,0.3,5,1.5,9.1,3.8c1.2,0.6,1.7,3.1,2.8,3.8c2,1.2,4.9,0.2,6.6,0.9
	c2.6,1.1,3.6,3.5,3.8,3.7c0.5,0.3,1.1,0.2,1.7,0.5c0.2,0.2,0.4,1,0.6,1.2c1.4,1.5,5.1,4.4,5.7,6.3c0.4,0.9,0.1,1,0,1.2
	c-0.5,1.7,1.3,2.4,2.3,2.9c3.6,1.8,8.4,3.4,12.6,5.2c1.6,0.6,3,1.7,4.6,2.3c1.5,0.5,3.8,0.8,5.1,1.7c0.2,0.1,0.9,1.2,1.8,0.6
	c0.1-0.1-0.2-0.5,0-0.6c1.1-0.8,1.4-0.2,2.9-0.6c0.3-0.1,0.4-0.1,0.8-0.2l0.1,0c0.3,0,1.6-0.3,1.9-0.4c1.9-0.3,3.9-0.3,5.8,0
	c1.3,0.2,4.2,0.5,5.1,1.1c3.2,2.1,6.6,5.5,9.8,8.1c2.3,1.8,2.9,1.6,5.7,2.3c0.2,0.1-0.2,0.5,0,0.6c1,0.3,1.8,0.4,2.8,0.5
	c7.3,1.5,14.7,3.4,20.6,6.4c1.6,0.9,3.5,2.1,5.7,1.7c1.3-0.2,2.1-0.6,3.4-0.6c1.5,0,3.1,0.5,4.5,1l0.7,0.2c6.4,2.1,13.2,4.1,20,4.7
	c0.3,0,8.6-0.5,5.2,1.2c-2.1,0.8-4.4,1.1-6.9,1.1c-2.9,0-6.8,0.6-9.2-0.5c-2.4-1.2-3.6-2.9-7.4-2.9c-0.7,0-1.8,0-2.5,0
	c-6.4,0.4-12.4,1.6-19.8-0.5H309c-1.5-0.3-3.2-1.3-4.6-1.8c-2.6-0.8-4.8-1.2-6.6-1.2l2.6,1.8c2.1,1,4.7,2.5,6.3,3.5
	c1.1,0.2,2.8,0.2,4,1.1c2,0.2,2.1,1,3.5,1.1c-4.8,0-9.7,0.3-14.2,0c-1.8-0.2-4.2-0.6-6.4-0.6c-1.5,0-5.8-0.4-7.5,0
	c-1.6,0.5-1.9,1.2-4,1.2H268.3z M286.4,228.6c-0.2,0-0.3,0-0.3,0c-0.8-0.4,1.5-7.2,0.6-8.1c-0.5-0.5-4.5,0-5.7,0
	c-4.7,0-9,0.5-13.4,1.2l-0.3,0.1c-1.9,0.3-3.8,0.6-5.8,1c-0.8,0.1-1.5,0.3-2.3,0.5c-0.2,0.1,0.2,0.5,0,0.6h-3.4
	c-1.4,0.3-1,0.6-2.4,0.6c-3.3,0,0.6-2.3,0.6-2.3c0.4-1.3,0.2-1.2,0.6-2.3c0.1-0.2,0.9-0.2,0.6-1.2c-0.1-0.2-0.5,0.2-0.6,0
	c-1.4-2.1-4.1-2.8-5.2-5.2c-0.5-0.2-1.2,0.2-1.7,0c-0.2-0.1,0.2-0.5,0-0.5c-0.5-0.2-1.3,0.2-1.8,0c-0.3-0.2-0.2-0.5-0.5-0.6h-1.8
	c-0.2-0.1,0.2-0.5,0-0.6c-0.9-0.3-2.4-0.4-2.8-0.5c-0.5-0.2-1.2,0.2-1.8,0c-0.1-0.1,0.2-0.4,0-0.5h-0.5c0-2.1,6.7,1,7.4,1.1
	c1.4,0.3,3.3,0,4.7,0c4.2,0.3,8.4,0.4,12.6,0c1.5,0.2,3.1,0.1,4.7,0h1c0.2,0-0.2-0.5,0-0.5h1.2c0.1-0.1-0.2-0.5,0-0.5
	c0.3-0.2,0.8,0.3,1.1,0c0.3-0.3-0.2-0.9,0-1.2c0.3-0.3,0.8,0,1.2,0c0.8-0.1,1.5-0.4,2.3-0.6c1.9,0,6.6-0.6,8.6,0
	c4.3,1.5,4.2,12.1,5.2,15.6c0.1,0.4-0.3,0.9,0,1.1c1,1.2,8.7-2.8,7.5,1.2c-0.4,1.2-2.7,0.3-4,0.6
	C291.2,227.5,287.6,228.5,286.4,228.6z M157.8,218.7l-1.5-0.1l-10.6-3.4c-2.6-0.8-5.3-0.7-8-2.3h-1.7l-0.5-1.2h-0.6v-2.3l2.3-3.5
	c1.3-2,3.9-3.3,5.8-4.7c0.5-0.5,0.2-0.9,0.5-1.7c0.4-0.1,1.3-0.3,1.8-0.1c-0.1-0.2,0.3-0.9,0.4-1.1l2.9-3.5
	c-0.4-1.3-1.5-2.1-3.4-2.3c-0.8,0-1.3-0.2-1.7-0.6c-0.5-0.7-0.5-1.5-0.5-2.3c0.2-0.6,2.5-0.7,9.7,0c1.7,0.2,2.6-0.1,3.5-0.4l1.6,1
	c-2.1,3-4.9,5.7-8.6,8.1l-2.3,1.2c0.2,0.2,0.2,0.5,0,0.6v1.1l1.1,1.8c-0.8,2.1-1.7,4-0.6,5.6c0.3,0.5,1.3,0.7,1.8,0.7l0.6,2.3
	c0.7,0.1,1.4,0.3,2.1,1.4c0.4,1.6,2.1,2.7,3.6,3.9l0.9-0.1L157.8,218.7z"/>
<g>
	<defs>
		<circle id="SVGID_3_" cx="300" cy="300" r="300"/>
	</defs>
	<clipPath id="SVGID_4_">
		<use xlink:href="#SVGID_3_"  style="overflow:visible;"/>
	</clipPath>
	<path class="st3" d="M507.5,428.1c-59.3-12.7-110.8-51.3-172.2-56c-61-4.7-118.6,23.7-175.2,42.1c-57.1,18.5-117.3,27-173.4,0.1
		c33.5,23.5,76.2,29.4,116.2,25.8c20.8-1.9,41.4-6.4,61.5-12c10.6-2.9,21-6.2,31.5-9.5c6.9-2.2,17.2-8,24.5-8.3
		c2.4-0.1,8.3,2.8,13,2.9c10.8,0.2,22-2.1,32.6-3.9c21.4-3.6,43.1-8,64.9-6.1c46.2,4,87.5,32,128.7,50.9c-20.8,7-38.5,19.8-59,27.4
		c-21.3,7.9-43.9,11.3-65.5,17.9c-44.2,13.4-89.4,36.4-136.7,33.6c17.2,5.7,37.6,3.6,55,0.1c2.6-0.5,5.9-1.8,8.5-1.9
		c5.9-0.3,1.3,1.1,6.5,1.5c10.6,0.7,20-2.8,30.1-5.8c18.9-5.5,38.3-10,57.9-11.7c16-1.4,28.2-1.5,42.3-10.5c8.2-5.2,15-11,24.1-13.2
		c8-1.9,20-4.6,26.4-3.9c8.1,0.9,14.1,3.1,23.1,1.1c9.2-2,15.4-6.5,23.4-10.8c6.3-3.4,14.1-4.6,21.9-3.6c9.3,1.2,18.6,3,28,5.2
		c9.1-13.5,17.4-27.6,24.7-42.3C549,435,528.1,432.5,507.5,428.1z"/>
</g>
<path class="st4" d="M322.1,207.6c0,0-19.1,1.2-20.6,7.7c0,0,9.8,2.5,20.6,3.2c0,0,16.8,16.8,18.5,25.2c1.7,8.4-3.1,30.6,21.6,70.2
	c24.7,39.5,30.9,30.1,43.2,34.3c0,0-0.4,10.1,0,16.3c0,0-5.8,11.6-11.4,15.3c0,0-13.3,5.9-4.6,27.2c0,0,0.2,5.7,1.5,6.2
	c1.2,0.5,1,7.9,7.1,8.9c0,0-6-4.2-4.6-12.8c0,0,2.1,2.2,5.4,0.5c0,0-4.8-0.5-5-4.4c-0.2-4-4.2-18.5,2.5-17.8
	c6.6,0.7,4.6,15.8,8.1,15.6c3.5-0.2,3.7,8.4,1,9.1c0,0,5-2.2,2.5-9.4c0,0,0.8-3.2-1.2-5.7c-2.1-2.5-8.3-13.8-3.3-20.3
	c5-6.4,17-11.4,16.2-23.7c0,0,8.9,7.7,21.8,0.2l20.1,7.9c0,0,25.7,28.2,35.7,40.3c10,12.1,32.2,50.2,38.6,49.2c0,0,3.9-0.2-2.7-14.1
	c0,0,3.3,3.5,8.7,6.7c0,0,0,4,8.5,7.4c0,0-3.1-13.4-31.3-45.7c0,0-23.5-31.4-25.7-36.1c0,0,4.4-2.7-15.6-24c0,0-4.6-11.1-8.1-19.3
	c-3.5-8.2-26.2-41-30.1-44.2c-3.9-3.2-15.6-23.2-38.8-47.4c0,0-15.4-29.9-23.9-37.6c-8.5-7.7-15.8-16.6-43-4.7
	C333.8,191.7,327.8,194,322.1,207.6z"/>
</svg>
