<?xml version="1.0" encoding="utf-8"?>
<!-- Generator: Adobe Illustrator 21.0.0, SVG Export Plug-In . SVG Version: 6.00 Build 0)  -->
<svg version="1.1" id="Layer_1" xmlns="http://www.w3.org/2000/svg" xmlns:xlink="http://www.w3.org/1999/xlink" x="0px" y="0px"
	 viewBox="0 0 1080 1080" style="enable-background:new 0 0 1080 1080;" xml:space="preserve">
<style type="text/css">
	.st0{fill:#FFFFFF;}
	.st1{fill:#CBCBCB;}
</style>
<rect class="st0" width="1080" height="1080"/>
<path class="st1" d="M451.3,696c0-13.6-0.5-27.2,0.1-40.7c0.5-10.6-3-19.5-10.2-26.6c-10.7-10.7-21.8-20.9-32.9-31.1
	c-28.7-26.2-50.8-56.7-58.5-95.3c-15.1-75.6,2.2-142.4,59.5-195.7c39.2-36.5,86.9-52.1,140.7-49.9c85.5,3.5,156.6,65.5,177.7,143.8
	c9.6,35.7,10.6,71.7,0.8,107.4c-8.3,30.1-25.9,54.6-48.8,75.6c-9.7,8.9-19.8,17.5-29.4,26.6c-4.9,4.7-9.2,10-13.4,15.3
	c-6.4,8-8.6,17.3-8.6,27.5c0,30.6,0.8,61.2-1,91.6c-2,33.6-19,59.3-50.9,71.4c-35.6,13.5-70.1,9.5-99.3-16.9
	c-16.3-14.7-23.8-34.4-25-56c-0.9-15.6-0.2-31.3-0.2-47C451.8,696,451.5,696,451.3,696z M699.9,456.1c-0.2-3.8-0.5-7.5-0.7-11.3
	c-2.1-38.5-15.5-72.7-41.5-101c-37.7-41-85-57.5-140-50.4c-57.3,7.4-96.8,40.1-122.4,90.6c-14.2,28-17.2,58.4-14.5,89.4
	c2.7,31.2,14,59,35.9,81.8c11.7,12.3,24,24,36.7,35.3c22.3,19.9,36.9,43,33.3,74.2c-0.8,6.9,2.6,9.4,8.2,11
	c18.5,5.3,37.5,7.5,56.6,5.7c11.9-1.1,23.6-4.5,35.3-7.1c4.7-1,6.8-3.8,6.3-8.9c-0.5-4.9,0-9.8-0.1-14.7
	c-0.2-19.1,5.2-36.2,18.3-50.3c8.5-9.1,16.9-18.3,26.3-26.5c14.9-12.9,29.4-26.1,40.8-42.2C694.5,509.1,699.9,483.3,699.9,456.1z
	 M594,708.5c-36.7,10.4-71.7,10.9-106.7,0.9c0,11.7-0.9,22.9,0.2,33.9c2,18.7,11.2,33.1,29.3,40.3c10.9,4.3,22.4,4.9,34,3
	c20.3-3.3,35-14.2,39.4-34.6C593.2,738.3,592.8,723.7,594,708.5z"/>
</svg>
